<svg width="558" height="305" viewBox="0 0 558 305" fill="none" xmlns="http://www.w3.org/2000/svg">
<path d="M10.488 186C9.476 186 8.625 185.655 7.935 184.965C7.245 184.275 6.9 183.424 6.9 182.412V135.699C6.9 134.641 7.245 133.79 7.935 133.146C8.625 132.456 9.476 132.111 10.488 132.111H41.676C42.734 132.111 43.585 132.433 44.229 133.077C44.873 133.675 45.195 134.48 45.195 135.492C45.195 136.458 44.873 137.24 44.229 137.838C43.585 138.436 42.734 138.735 41.676 138.735H14.076V155.502H33.879C34.937 155.502 35.788 155.824 36.432 156.468C37.076 157.066 37.398 157.848 37.398 158.814C37.398 159.78 37.076 160.585 36.432 161.229C35.788 161.827 34.937 162.126 33.879 162.126H14.076V179.376H41.676C42.734 179.376 43.585 179.675 44.229 180.273C44.873 180.871 45.195 181.653 45.195 182.619C45.195 183.631 44.873 184.459 44.229 185.103C43.585 185.701 42.734 186 41.676 186H10.488ZM104.065 186.069C103.053 186.069 102.202 185.747 101.512 185.103C100.868 184.413 100.546 183.562 100.546 182.55V162.816C100.546 159.918 99.8335 157.779 98.4075 156.399C96.9815 154.973 95.1185 154.26 92.8185 154.26C90.4265 154.26 88.4485 155.088 86.8845 156.744C85.3665 158.4 84.6075 160.516 84.6075 163.092H78.8805C78.8805 160.102 79.5245 157.48 80.8125 155.226C82.1005 152.926 83.8945 151.132 86.1945 149.844C88.5405 148.556 91.2085 147.912 94.1985 147.912C96.8205 147.912 99.1435 148.487 101.167 149.637C103.191 150.787 104.755 152.489 105.859 154.743C107.009 156.951 107.584 159.642 107.584 162.816V182.55C107.584 183.562 107.262 184.413 106.618 185.103C105.974 185.747 105.123 186.069 104.065 186.069ZM58.0425 186.069C57.0305 186.069 56.1795 185.747 55.4895 185.103C54.8455 184.413 54.5235 183.562 54.5235 182.55V151.845C54.5235 150.787 54.8455 149.936 55.4895 149.292C56.1795 148.648 57.0305 148.326 58.0425 148.326C59.1005 148.326 59.9515 148.648 60.5955 149.292C61.2395 149.936 61.5615 150.787 61.5615 151.845V182.55C61.5615 183.562 61.2395 184.413 60.5955 185.103C59.9515 185.747 59.1005 186.069 58.0425 186.069ZM81.0885 186.069C80.0765 186.069 79.2255 185.747 78.5355 185.103C77.8915 184.413 77.5695 183.562 77.5695 182.55V162.816C77.5695 159.918 76.8565 157.779 75.4305 156.399C74.0045 154.973 72.1415 154.26 69.8415 154.26C67.4495 154.26 65.4715 155.088 63.9075 156.744C62.3435 158.4 61.5615 160.516 61.5615 163.092H57.2145C57.2145 160.102 57.8125 157.48 59.0085 155.226C60.2045 152.926 61.8605 151.132 63.9765 149.844C66.0925 148.556 68.5075 147.912 71.2215 147.912C73.8435 147.912 76.1665 148.487 78.1905 149.637C80.2145 150.787 81.7785 152.489 82.8825 154.743C84.0325 156.951 84.6075 159.642 84.6075 162.816V182.55C84.6075 183.562 84.2855 184.413 83.6415 185.103C82.9975 185.747 82.1465 186.069 81.0885 186.069ZM135.01 186.276C131.652 186.276 128.639 185.448 125.971 183.792C123.303 182.09 121.187 179.813 119.623 176.961C118.105 174.063 117.346 170.797 117.346 167.163C117.346 163.529 118.174 160.263 119.83 157.365C121.532 154.467 123.809 152.19 126.661 150.534C129.559 148.832 132.802 147.981 136.39 147.981C139.978 147.981 143.198 148.832 146.05 150.534C148.902 152.19 151.156 154.467 152.812 157.365C154.514 160.263 155.365 163.529 155.365 167.163H152.674C152.674 170.797 151.892 174.063 150.328 176.961C148.81 179.813 146.717 182.09 144.049 183.792C141.381 185.448 138.368 186.276 135.01 186.276ZM136.39 180.066C138.736 180.066 140.829 179.514 142.669 178.41C144.509 177.26 145.958 175.719 147.016 173.787C148.074 171.809 148.603 169.601 148.603 167.163C148.603 164.679 148.074 162.471 147.016 160.539C145.958 158.561 144.509 157.02 142.669 155.916C140.829 154.766 138.736 154.191 136.39 154.191C134.09 154.191 131.997 154.766 130.111 155.916C128.271 157.02 126.799 158.561 125.695 160.539C124.637 162.471 124.108 164.679 124.108 167.163C124.108 169.601 124.637 171.809 125.695 173.787C126.799 175.719 128.271 177.26 130.111 178.41C131.997 179.514 134.09 180.066 136.39 180.066ZM151.846 186.069C150.834 186.069 149.983 185.747 149.293 185.103C148.649 184.413 148.327 183.562 148.327 182.55V171.993L149.638 164.679L155.365 167.163V182.55C155.365 183.562 155.02 184.413 154.33 185.103C153.686 185.747 152.858 186.069 151.846 186.069ZM170.049 186C169.037 186 168.186 185.678 167.496 185.034C166.852 184.344 166.53 183.493 166.53 182.481V151.776C166.53 150.718 166.852 149.867 167.496 149.223C168.186 148.579 169.037 148.257 170.049 148.257C171.107 148.257 171.958 148.579 172.602 149.223C173.246 149.867 173.568 150.718 173.568 151.776V182.481C173.568 183.493 173.246 184.344 172.602 185.034C171.958 185.678 171.107 186 170.049 186ZM170.049 142.116C168.807 142.116 167.726 141.679 166.806 140.805C165.932 139.885 165.495 138.804 165.495 137.562C165.495 136.32 165.932 135.262 166.806 134.388C167.726 133.468 168.807 133.008 170.049 133.008C171.291 133.008 172.349 133.468 173.223 134.388C174.143 135.262 174.603 136.32 174.603 137.562C174.603 138.804 174.143 139.885 173.223 140.805C172.349 141.679 171.291 142.116 170.049 142.116ZM195.631 186C193.607 186 191.813 185.448 190.249 184.344C188.685 183.24 187.466 181.745 186.592 179.859C185.718 177.927 185.281 175.719 185.281 173.235V135.561C185.281 134.549 185.603 133.721 186.247 133.077C186.891 132.433 187.719 132.111 188.731 132.111C189.743 132.111 190.571 132.433 191.215 133.077C191.859 133.721 192.181 134.549 192.181 135.561V173.235C192.181 174.937 192.503 176.34 193.147 177.444C193.791 178.548 194.619 179.1 195.631 179.1H197.356C198.276 179.1 199.012 179.422 199.564 180.066C200.162 180.71 200.461 181.538 200.461 182.55C200.461 183.562 200.024 184.39 199.15 185.034C198.276 185.678 197.149 186 195.769 186H195.631ZM231.841 186C230.829 186 229.978 185.655 229.288 184.965C228.598 184.275 228.253 183.424 228.253 182.412V135.699C228.253 134.641 228.598 133.79 229.288 133.146C229.978 132.456 230.829 132.111 231.841 132.111H248.332C251.46 132.111 254.197 132.732 256.543 133.974C258.935 135.17 260.798 136.849 262.132 139.011C263.512 141.173 264.202 143.657 264.202 146.463C264.202 148.717 263.581 150.764 262.339 152.604C261.143 154.398 259.487 155.824 257.371 156.882C260.407 157.618 262.845 159.067 264.685 161.229C266.525 163.391 267.445 166.22 267.445 169.716C267.445 172.89 266.686 175.696 265.168 178.134C263.696 180.572 261.626 182.504 258.958 183.93C256.29 185.31 253.231 186 249.781 186H231.841ZM235.429 179.376H249.781C251.897 179.376 253.76 179.008 255.37 178.272C256.98 177.536 258.245 176.455 259.165 175.029C260.085 173.603 260.545 171.832 260.545 169.716C260.545 167.738 260.085 166.105 259.165 164.817C258.245 163.529 256.98 162.563 255.37 161.919C253.76 161.229 251.897 160.884 249.781 160.884H235.429V179.376ZM235.429 154.26H248.332C250.954 154.26 253.093 153.616 254.749 152.328C256.451 151.04 257.302 149.085 257.302 146.463C257.302 143.841 256.451 141.909 254.749 140.667C253.093 139.379 250.954 138.735 248.332 138.735H235.429V154.26ZM286.396 186C284.372 186 282.578 185.448 281.014 184.344C279.45 183.24 278.231 181.745 277.357 179.859C276.483 177.927 276.046 175.719 276.046 173.235V135.561C276.046 134.549 276.368 133.721 277.012 133.077C277.656 132.433 278.484 132.111 279.496 132.111C280.508 132.111 281.336 132.433 281.98 133.077C282.624 133.721 282.946 134.549 282.946 135.561V173.235C282.946 174.937 283.268 176.34 283.912 177.444C284.556 178.548 285.384 179.1 286.396 179.1H288.121C289.041 179.1 289.777 179.422 290.329 180.066C290.927 180.71 291.226 181.538 291.226 182.55C291.226 183.562 290.789 184.39 289.915 185.034C289.041 185.678 287.914 186 286.534 186H286.396ZM313.756 186.276C309.938 186.276 306.534 185.471 303.544 183.861C300.6 182.205 298.277 179.951 296.575 177.099C294.919 174.201 294.091 170.889 294.091 167.163C294.091 163.391 294.873 160.079 296.437 157.227C298.047 154.329 300.255 152.075 303.061 150.465C305.867 148.809 309.087 147.981 312.721 147.981C316.309 147.981 319.391 148.786 321.967 150.396C324.543 151.96 326.498 154.145 327.832 156.951C329.212 159.711 329.902 162.908 329.902 166.542C329.902 167.416 329.603 168.152 329.005 168.75C328.407 169.302 327.648 169.578 326.728 169.578H298.921V164.058H326.521L323.692 165.99C323.646 163.69 323.186 161.643 322.312 159.849C321.438 158.009 320.196 156.56 318.586 155.502C316.976 154.444 315.021 153.915 312.721 153.915C310.099 153.915 307.845 154.49 305.959 155.64C304.119 156.79 302.716 158.377 301.75 160.401C300.784 162.379 300.301 164.633 300.301 167.163C300.301 169.693 300.876 171.947 302.026 173.925C303.176 175.903 304.763 177.467 306.787 178.617C308.811 179.767 311.134 180.342 313.756 180.342C315.182 180.342 316.631 180.089 318.103 179.583C319.621 179.031 320.84 178.41 321.76 177.72C322.45 177.214 323.186 176.961 323.968 176.961C324.796 176.915 325.509 177.145 326.107 177.651C326.889 178.341 327.303 179.1 327.349 179.928C327.395 180.756 327.027 181.469 326.245 182.067C324.681 183.309 322.726 184.321 320.38 185.103C318.08 185.885 315.872 186.276 313.756 186.276ZM370.757 186.069C369.745 186.069 368.894 185.747 368.204 185.103C367.56 184.413 367.238 183.562 367.238 182.55V165.576C367.238 162.954 366.755 160.815 365.789 159.159C364.823 157.503 363.512 156.284 361.856 155.502C360.246 154.674 358.383 154.26 356.267 154.26C354.335 154.26 352.587 154.651 351.023 155.433C349.459 156.215 348.217 157.273 347.297 158.607C346.377 159.895 345.917 161.39 345.917 163.092H341.57C341.57 160.194 342.26 157.618 343.64 155.364C345.066 153.064 346.998 151.247 349.436 149.913C351.874 148.579 354.611 147.912 357.647 147.912C360.821 147.912 363.65 148.602 366.134 149.982C368.664 151.316 370.642 153.294 372.068 155.916C373.54 158.538 374.276 161.758 374.276 165.576V182.55C374.276 183.562 373.931 184.413 373.241 185.103C372.597 185.747 371.769 186.069 370.757 186.069ZM342.398 186.069C341.386 186.069 340.535 185.747 339.845 185.103C339.201 184.413 338.879 183.562 338.879 182.55V151.776C338.879 150.718 339.201 149.867 339.845 149.223C340.535 148.579 341.386 148.257 342.398 148.257C343.456 148.257 344.307 148.579 344.951 149.223C345.595 149.867 345.917 150.718 345.917 151.776V182.55C345.917 183.562 345.595 184.413 344.951 185.103C344.307 185.747 343.456 186.069 342.398 186.069ZM403.024 186.276C399.436 186.276 396.193 185.448 393.295 183.792C390.443 182.09 388.166 179.79 386.464 176.892C384.808 173.994 383.98 170.728 383.98 167.094C383.98 163.46 384.739 160.217 386.257 157.365C387.821 154.467 389.937 152.19 392.605 150.534C395.273 148.832 398.286 147.981 401.644 147.981C404.358 147.981 406.865 148.556 409.165 149.706C411.465 150.81 413.397 152.328 414.961 154.26V135.63C414.961 134.572 415.283 133.721 415.927 133.077C416.617 132.433 417.468 132.111 418.48 132.111C419.538 132.111 420.389 132.433 421.033 133.077C421.677 133.721 421.999 134.572 421.999 135.63V167.094C421.999 170.728 421.148 173.994 419.446 176.892C417.79 179.79 415.536 182.09 412.684 183.792C409.832 185.448 406.612 186.276 403.024 186.276ZM403.024 180.066C405.37 180.066 407.463 179.514 409.303 178.41C411.143 177.26 412.592 175.696 413.65 173.718C414.708 171.74 415.237 169.532 415.237 167.094C415.237 164.61 414.708 162.402 413.65 160.47C412.592 158.538 411.143 157.02 409.303 155.916C407.463 154.766 405.37 154.191 403.024 154.191C400.724 154.191 398.631 154.766 396.745 155.916C394.905 157.02 393.433 158.538 392.329 160.47C391.271 162.402 390.742 164.61 390.742 167.094C390.742 169.532 391.271 171.74 392.329 173.718C393.433 175.696 394.905 177.26 396.745 178.41C398.631 179.514 400.724 180.066 403.024 180.066Z" fill="black"/>
<line x1="253.5" y1="-1.09278e-07" x2="253.5" y2="119" stroke="black" stroke-width="5"/>
<line x1="253.5" y1="305" x2="253.5" y2="202" stroke="black" stroke-width="5"/>
<line x1="256" y1="302.5" x2="558" y2="302.5" stroke="black" stroke-width="5"/>
<line x1="555.5" y1="4" x2="555.5" y2="300" stroke="black" stroke-width="5"/>
<line x1="256" y1="2.5" x2="558" y2="2.49997" stroke="black" stroke-width="5"/>
</svg>
